<?xml version="1.0" standalone="no"?>
<!DOCTYPE svg PUBLIC "-//W3C//DTD SVG 20010904//EN"
 "http://www.w3.org/TR/2001/REC-SVG-20010904/DTD/svg10.dtd">
<svg version="1.0" xmlns="http://www.w3.org/2000/svg"
 width="2000.000000pt" height="2000.000000pt" viewBox="0 0 2000.000000 2000.000000"
 preserveAspectRatio="xMidYMid meet">

<g transform="translate(0.000000,2000.000000) scale(0.100000,-0.100000)"
fill="#000000" stroke="none">
<path d="M8567 19414 c-3 -3 -70 -14 -104 -17 -13 -1 -23 -7 -23 -13 0 -6 -11
-16 -25 -22 -14 -7 -25 -20 -25 -31 0 -31 -21 -70 -42 -76 -10 -4 -18 -9 -19
-13 0 -4 -2 -29 -3 -55 -1 -27 -7 -52 -15 -56 -7 -5 -15 -28 -18 -52 -6 -49
-24 -99 -35 -99 -5 0 -8 -15 -8 -34 0 -19 -5 -47 -11 -63 -7 -15 -13 -50 -15
-77 -2 -28 -9 -53 -15 -57 -6 -3 -12 -19 -14 -35 -1 -16 -7 -72 -13 -124 -5
-52 -11 -142 -12 -199 -1 -121 1 -118 -114 -177 -253 -131 -681 -443 -990
-722 -430 -389 -1050 -1168 -1423 -1787 -422 -700 -845 -1599 -1243 -2640
-134 -350 -264 -740 -420 -1255 -43 -142 -251 -871 -329 -1150 -62 -226 -177
-642 -232 -845 -61 -222 -159 -571 -256 -910 -47 -165 -90 -315 -95 -332 -5
-19 -16 -33 -24 -33 -32 0 -93 -42 -149 -102 -98 -106 -160 -217 -216 -390
-47 -144 -99 -268 -140 -337 -41 -68 -49 -114 -29 -166 8 -20 6 -35 -10 -65
-25 -50 -26 -110 -1 -158 11 -20 62 -79 115 -131 l95 -94 -16 -30 c-24 -47
-40 -113 -58 -236 -9 -63 -27 -146 -40 -185 -46 -139 -74 -252 -81 -331 -4
-44 -17 -115 -30 -158 -13 -43 -28 -115 -34 -160 -13 -101 -44 -252 -76 -374
-14 -51 -31 -125 -38 -165 -7 -40 -31 -163 -54 -273 -37 -186 -63 -362 -78
-530 -3 -38 -12 -108 -20 -154 -23 -139 -22 -142 52 -234 36 -45 69 -91 74
-102 9 -22 76 -107 188 -238 39 -47 72 -90 72 -95 0 -5 8 -16 18 -25 17 -16
19 -4 51 286 85 785 202 1639 337 2454 31 186 42 233 54 233 8 0 40 -21 70
-46 30 -25 93 -71 140 -102 47 -31 191 -126 320 -212 336 -223 408 -273 470
-326 30 -26 100 -81 155 -122 55 -42 126 -97 157 -123 31 -26 144 -104 250
-174 309 -205 370 -246 417 -284 24 -20 89 -70 146 -111 56 -41 163 -120 236
-176 145 -108 293 -210 349 -239 19 -10 57 -35 85 -55 27 -20 86 -57 130 -80
94 -51 233 -137 400 -245 66 -43 192 -117 280 -163 88 -47 230 -126 315 -175
85 -50 209 -119 275 -153 162 -83 359 -198 420 -244 28 -21 106 -66 175 -101
69 -35 144 -76 167 -91 49 -33 182 -98 199 -98 7 0 21 -11 31 -23 24 -31 126
-77 423 -188 283 -106 338 -116 414 -79 36 17 46 27 46 46 0 14 6 24 14 24 19
0 30 52 22 105 l-7 43 71 46 c38 25 91 65 117 88 49 46 227 263 269 330 14 22
28 38 30 35 3 -3 14 -65 24 -139 32 -227 49 -330 70 -418 11 -47 36 -164 56
-260 19 -96 53 -231 74 -300 21 -69 46 -152 55 -185 9 -33 41 -107 71 -163 31
-57 53 -106 51 -109 -3 -2 -71 32 -152 78 -162 90 -481 247 -730 359 -88 40
-227 106 -309 147 -204 102 -468 206 -791 310 -27 9 -68 25 -90 35 -50 24
-160 59 -188 60 -12 0 -47 7 -77 14 -30 7 -165 34 -300 59 -406 76 -510 107
-456 137 9 5 26 28 37 50 36 71 16 150 -53 201 -30 23 -172 64 -388 113 -85
19 -245 57 -355 83 -110 27 -259 61 -332 75 -176 35 -207 47 -453 172 -174 88
-221 107 -255 106 -93 -1 -165 -73 -165 -164 0 -52 27 -100 72 -128 70 -44
477 -239 538 -258 36 -12 144 -37 240 -57 96 -20 209 -47 250 -62 41 -14 107
-29 145 -34 196 -23 217 -28 257 -54 46 -30 77 -91 78 -149 0 -25 -14 -67 -40
-121 -22 -45 -64 -149 -94 -231 -29 -82 -77 -201 -106 -264 -29 -63 -74 -162
-100 -220 -82 -180 -120 -318 -135 -490 -19 -214 -90 -637 -129 -765 -9 -27
-16 -56 -16 -62 0 -14 73 -53 205 -108 50 -21 94 -42 99 -46 10 -9 50 106 66
191 65 328 100 553 124 810 9 92 45 208 102 331 30 65 54 120 54 123 0 3 24
58 54 123 29 65 84 202 121 304 l67 186 66 -15 c37 -7 157 -33 267 -57 110
-24 238 -51 285 -60 47 -9 110 -23 140 -32 78 -21 113 -29 210 -48 47 -10 114
-30 150 -45 36 -15 97 -38 135 -50 140 -46 381 -149 620 -265 311 -152 503
-238 652 -291 203 -72 282 -114 503 -262 180 -121 226 -156 396 -299 44 -37
167 -139 272 -227 106 -87 220 -188 253 -224 176 -187 314 -428 430 -746 24
-65 49 -121 57 -123 16 -7 303 36 315 46 14 13 -117 370 -189 514 -89 177
-226 382 -346 519 -58 66 -261 243 -473 412 -152 122 -140 107 -116 152 31 58
27 111 -15 191 -19 37 -51 105 -70 151 -18 45 -54 119 -78 165 -25 45 -50 102
-56 127 -6 25 -27 92 -45 150 -19 58 -50 179 -69 270 -19 91 -42 199 -51 240
-32 152 -65 360 -90 570 -36 297 -86 471 -162 560 -44 51 -85 70 -154 70 -74
0 -403 99 -554 167 -55 25 -137 58 -182 74 -158 53 -411 181 -523 264 -80 59
-191 127 -310 188 -90 46 -273 156 -333 199 -30 21 -88 575 -92 873 -1 127
-12 363 -24 525 -124 1759 33 3314 463 4575 137 404 264 685 522 1158 462 845
803 1298 1491 1978 394 390 633 605 878 789 487 367 1034 651 1636 851 182 60
525 148 663 171 78 12 78 12 98 -12 11 -14 89 -101 174 -195 173 -192 268
-311 453 -570 437 -612 591 -848 931 -1430 416 -712 526 -929 867 -1719 69
-160 219 -506 334 -768 383 -877 530 -1245 697 -1743 264 -786 514 -1829 631
-2635 23 -156 80 -647 115 -995 53 -512 61 -664 61 -1145 -1 -479 -7 -574 -65
-1005 -10 -77 -17 -141 -16 -143 4 -4 112 140 119 158 3 8 28 44 57 78 84 104
197 264 214 305 12 29 18 103 26 318 21 583 -21 1202 -155 2294 -100 809 -357
1921 -647 2805 -173 527 -322 905 -693 1755 -84 193 -228 523 -320 735 -413
952 -493 1115 -908 1825 -323 555 -471 786 -792 1245 -326 464 -486 673 -661
860 -49 53 -143 159 -209 235 -144 168 -331 357 -479 484 -105 89 -163 135
-521 411 -137 105 -160 127 -158 148 1 14 6 28 11 31 11 8 30 75 38 139 4 28
10 52 14 52 11 0 29 160 37 319 3 78 10 141 15 141 4 0 8 36 8 80 0 44 -4 80
-8 80 -5 0 -12 69 -15 153 -5 151 -25 327 -38 337 -3 3 -9 30 -13 60 -8 67
-24 120 -37 120 -5 0 -9 7 -9 15 0 52 -91 162 -142 172 -15 3 -28 9 -28 14 0
5 -22 9 -50 9 -27 0 -50 -4 -50 -8 0 -5 -41 -16 -90 -27 -50 -10 -93 -22 -96
-26 -3 -5 -14 -9 -25 -9 -10 0 -19 -4 -19 -10 0 -5 -9 -10 -19 -10 -11 0 -21
-4 -23 -8 -1 -5 -46 -23 -98 -41 -52 -18 -100 -38 -105 -44 -11 -13 -25 -22
-106 -63 -30 -15 -56 -30 -59 -33 -8 -10 -43 -30 -87 -51 -24 -11 -43 -25 -43
-30 0 -6 -6 -10 -13 -10 -7 0 -37 -23 -67 -50 -30 -28 -66 -53 -80 -57 -32 -8
-90 -52 -90 -68 0 -7 -15 -28 -33 -46 -19 -19 -41 -46 -51 -61 -15 -23 -23
-26 -49 -21 -18 3 -38 10 -45 16 -7 5 -44 12 -82 15 -39 2 -70 9 -70 13 0 14
-40 10 -56 -5 -7 -8 -33 -17 -56 -21 -50 -8 -138 -54 -138 -72 0 -7 -6 -13
-13 -13 -7 0 -20 -8 -29 -19 -8 -10 -20 -20 -24 -22 -5 -2 -16 -17 -24 -33
-20 -40 -38 -43 -50 -10 -11 28 -74 94 -91 94 -5 0 -9 7 -9 15 0 8 -6 15 -13
15 -7 0 -20 9 -30 20 -9 11 -24 20 -32 20 -8 0 -17 11 -21 25 -4 15 -13 25
-24 25 -10 0 -22 9 -25 20 -3 11 -15 20 -26 20 -10 0 -19 5 -19 10 0 6 -9 10
-20 10 -11 0 -20 6 -20 13 0 8 -16 22 -35 33 -19 10 -35 22 -35 26 0 5 -9 8
-20 8 -10 0 -23 6 -27 13 -9 14 -152 88 -170 87 -7 0 -13 7 -13 15 0 9 -9 15
-24 15 -13 0 -29 7 -36 15 -7 8 -21 15 -31 15 -11 0 -19 5 -19 10 0 6 -8 10
-18 10 -9 0 -23 9 -30 20 -7 12 -23 20 -41 20 -16 0 -34 6 -40 13 -6 8 -36 19
-66 26 -30 7 -55 16 -55 20 0 5 -26 11 -57 14 -32 3 -59 11 -61 16 -2 6 -30
13 -63 17 -32 4 -59 10 -59 14 0 4 -17 11 -37 15 -21 4 -40 10 -43 13 -7 10
-138 50 -185 57 -48 7 -95 24 -95 35 0 11 -263 44 -273 34z m224 -281 c27 -10
49 -21 49 -25 0 -5 16 -8 35 -8 19 0 35 -4 35 -10 0 -5 13 -10 28 -10 16 0 55
-9 88 -20 32 -11 67 -20 77 -20 9 0 17 -4 17 -10 0 -5 9 -10 19 -10 11 0 23
-4 26 -10 3 -5 21 -10 38 -10 18 0 65 -9 106 -20 41 -11 87 -20 102 -20 15 0
34 -6 41 -14 8 -7 25 -17 38 -21 14 -4 39 -15 56 -25 17 -9 47 -23 67 -29 20
-7 37 -17 37 -22 0 -5 6 -9 14 -9 7 0 19 -7 26 -15 7 -8 23 -15 36 -15 12 0
26 -4 29 -10 3 -5 15 -10 26 -10 10 0 19 -4 19 -10 0 -5 9 -10 20 -10 11 0 20
-4 20 -10 0 -5 33 -25 74 -44 40 -19 76 -42 79 -50 4 -9 12 -16 19 -16 7 0 19
-9 26 -20 7 -12 16 -19 21 -16 4 3 14 -4 21 -15 8 -10 20 -19 26 -19 7 0 14
-4 16 -8 2 -4 18 -18 36 -31 17 -12 32 -29 32 -37 0 -8 11 -20 25 -26 13 -6
27 -19 30 -30 4 -10 11 -18 16 -18 5 0 9 -7 9 -15 0 -8 17 -27 38 -43 35 -25
38 -30 30 -57 -4 -17 -11 -64 -14 -105 -3 -41 -10 -76 -15 -78 -5 -2 -9 -10
-9 -17 0 -8 -11 -22 -25 -33 -14 -11 -25 -25 -25 -31 0 -6 -13 -20 -30 -32
-16 -12 -27 -26 -24 -31 3 -4 0 -8 -5 -8 -6 0 -11 -7 -11 -15 0 -9 -11 -20
-25 -25 -14 -5 -25 -14 -25 -20 0 -5 -7 -10 -15 -10 -9 0 -24 -13 -33 -30 -9
-16 -23 -30 -29 -30 -7 0 -13 -7 -13 -15 0 -8 -4 -15 -10 -15 -5 0 -10 -4 -10
-10 0 -15 -33 -50 -47 -50 -17 0 -17 -20 0 -21 6 0 2 -5 -11 -11 -13 -6 -21
-17 -18 -23 2 -7 -9 -24 -25 -39 -16 -15 -29 -33 -29 -39 0 -13 -63 -67 -79
-67 -5 0 -13 -9 -16 -20 -3 -11 -11 -20 -17 -20 -5 0 -22 -12 -37 -27 -15 -16
-47 -44 -71 -63 -25 -19 -54 -44 -66 -56 -12 -12 -29 -24 -38 -27 -9 -4 -16
-11 -16 -17 0 -5 -6 -10 -13 -10 -7 0 -18 -9 -25 -20 -7 -11 -19 -20 -27 -20
-8 0 -15 -4 -15 -10 0 -5 -5 -10 -11 -10 -6 0 -25 -6 -42 -14 -18 -8 -57 -21
-87 -31 -30 -9 -60 -23 -66 -30 -12 -16 -112 -85 -123 -85 -3 0 -12 -9 -19
-21 -7 -11 -33 -29 -58 -40 -24 -11 -44 -24 -44 -28 0 -5 -12 -13 -27 -19 -44
-16 -93 -23 -93 -12 0 6 -7 10 -15 10 -9 0 -18 6 -21 14 -3 8 -16 17 -30 20
-13 4 -24 13 -24 21 0 8 -7 15 -15 15 -8 0 -15 4 -15 9 0 14 -45 61 -59 61 -6
0 -11 7 -11 15 0 8 -6 15 -13 15 -7 0 -18 20 -25 44 -7 28 -18 45 -30 48 -13
4 -21 18 -26 47 -3 22 -10 41 -14 41 -10 0 -42 76 -42 100 0 11 -4 20 -8 20
-5 0 -15 23 -22 50 -7 28 -17 50 -22 50 -4 0 -8 9 -8 20 0 10 -4 29 -9 42 -6
13 -13 44 -16 71 -3 26 -11 47 -18 47 -13 0 -14 3 -16 185 -2 72 -6 182 -11
245 -12 143 8 465 28 479 10 7 42 156 42 194 0 15 4 27 10 27 5 0 14 18 20 40
6 22 15 40 20 40 6 0 10 13 10 28 0 15 5 33 11 39 5 5 13 35 16 66 4 40 10 57
22 60 41 11 137 6 182 -10z m3425 -60 c4 -27 8 -63 8 -80 0 -18 4 -33 8 -33 4
0 8 -27 8 -60 0 -33 4 -60 8 -60 4 0 16 -54 26 -120 10 -66 22 -120 27 -120 5
0 9 -79 9 -175 0 -96 -4 -175 -8 -175 -5 0 -12 -46 -16 -102 -9 -140 -27 -278
-36 -278 -5 0 -11 -17 -15 -38 -6 -37 -9 -39 -56 -50 -97 -23 -251 -9 -287 25
-7 7 -19 13 -25 14 -21 1 -41 6 -90 23 -26 9 -54 16 -61 16 -7 0 -24 10 -37
21 -13 12 -52 35 -86 51 -35 17 -63 34 -63 38 0 9 -141 80 -158 80 -7 0 -12 4
-12 8 0 4 -15 12 -32 17 l-33 10 -2 130 c-1 78 -6 131 -13 133 -5 2 -10 16
-10 30 0 42 -30 156 -42 163 -8 5 -6 12 5 24 10 9 17 20 17 25 0 5 12 23 28
39 15 17 40 46 56 66 16 19 35 35 43 35 7 0 21 8 31 18 10 9 29 23 43 30 14 7
43 30 65 50 36 34 85 66 144 95 14 6 27 15 30 18 3 4 38 24 78 44 39 21 72 41
72 45 0 4 10 10 23 13 12 3 56 15 97 26 41 11 105 23 142 27 38 4 68 11 68 15
0 5 9 9 19 9 16 0 21 -10 27 -47z m-1727 -1144 c6 -17 15 -28 20 -24 6 3 13
-6 17 -20 3 -14 11 -25 18 -25 6 0 29 -17 51 -37 69 -65 162 -85 315 -68 70 8
160 34 160 46 0 5 7 9 16 9 18 0 70 35 97 64 17 19 19 19 28 4 5 -9 24 -20 42
-23 17 -4 39 -13 47 -20 8 -7 25 -16 38 -19 12 -4 22 -11 22 -16 0 -5 30 -23
68 -40 37 -17 72 -37 77 -44 11 -14 157 -86 174 -86 6 0 11 -4 11 -9 0 -18
165 -74 235 -79 68 -5 73 -7 190 -87 105 -71 432 -319 640 -484 103 -82 263
-222 318 -278 l47 -49 -102 -23 c-423 -94 -918 -275 -1343 -491 -638 -325
-1104 -681 -1816 -1390 -728 -726 -1140 -1297 -1660 -2305 -114 -220 -176
-356 -265 -583 -300 -753 -509 -1692 -591 -2655 l-18 -209 -39 6 c-62 10 -221
73 -351 139 -104 53 -131 72 -206 147 -102 101 -168 200 -354 525 -227 395
-242 415 -335 415 -85 0 -150 -65 -150 -150 0 -35 9 -61 41 -115 23 -39 109
-186 191 -329 165 -286 237 -397 325 -501 121 -144 292 -255 554 -360 110 -45
248 -85 288 -85 19 0 21 -4 16 -52 -3 -29 -8 -151 -11 -270 l-6 -216 -32 4
c-333 46 -512 99 -661 196 -156 101 -374 342 -646 712 -69 94 -140 181 -159
193 -96 66 -230 -9 -230 -128 0 -56 16 -82 205 -334 334 -444 535 -644 770
-765 149 -76 455 -158 653 -175 44 -4 84 -10 90 -14 7 -4 13 -102 18 -258 l7
-251 -64 -4 c-98 -7 -297 10 -381 31 -140 36 -350 157 -523 303 -155 130 -351
345 -550 602 -79 102 -112 126 -175 126 -86 0 -150 -65 -150 -151 0 -55 28
-100 171 -279 327 -407 607 -653 927 -814 178 -89 356 -126 610 -126 l150 0 6
-62 c19 -196 37 -558 31 -607 -5 -31 -7 -78 -6 -106 2 -54 47 -489 57 -543 l5
-34 -48 28 c-82 48 -186 116 -228 150 -22 17 -146 102 -275 189 -129 86 -257
176 -285 199 -79 66 -114 90 -390 273 -143 95 -278 185 -300 200 -40 29 -75
50 -345 212 -257 155 -271 166 -563 417 -97 83 -207 162 -342 243 -38 23 -97
58 -130 78 -33 20 -118 80 -190 134 -71 53 -191 133 -266 178 -76 45 -175 113
-220 151 -46 38 -136 106 -199 151 -63 45 -143 111 -177 146 l-63 64 59 207
c68 235 182 645 436 1567 464 1683 644 2252 966 3051 413 1027 860 1922 1261
2523 241 360 659 890 928 1176 281 299 732 665 1050 852 l85 50 3 -76 c2 -41
8 -83 13 -93 5 -9 9 -35 9 -57 0 -23 4 -41 9 -41 7 0 14 -29 25 -103 1 -10 9
-26 18 -36 8 -10 18 -37 21 -61 3 -23 10 -46 15 -49 5 -3 9 -24 10 -45 1 -22
7 -43 14 -48 10 -6 10 -8 1 -8 -7 0 -13 -7 -13 -15 0 -8 6 -15 14 -15 18 0 26
-12 32 -48 3 -15 11 -30 19 -35 7 -4 16 -21 20 -37 4 -17 13 -30 21 -30 8 0
14 -7 14 -15 0 -25 1 -29 18 -57 9 -16 23 -28 31 -28 8 0 11 -3 8 -6 -10 -10
25 -64 41 -64 8 0 12 -6 9 -12 -2 -7 9 -21 25 -30 15 -10 28 -22 28 -28 0 -5
7 -10 15 -10 8 0 19 -9 25 -20 6 -11 17 -20 25 -20 8 0 15 -7 15 -15 0 -9 12
-18 29 -21 17 -4 33 -16 40 -30 6 -13 19 -25 28 -25 128 -10 260 0 272 20 4 5
20 13 36 17 31 7 119 58 143 81 7 7 19 13 26 13 7 0 33 18 57 41 24 22 56 48
72 57 15 9 27 19 27 23 0 4 14 12 30 18 17 5 30 15 30 20 0 6 10 11 22 11 12
0 29 6 37 13 9 7 42 21 74 32 31 10 57 22 57 27 0 5 8 12 17 15 22 9 83 69 83
82 0 6 12 18 28 28 15 10 41 33 57 51 17 19 49 45 72 59 23 13 45 33 48 43 3
10 23 30 45 45 22 15 42 35 45 45 3 10 15 20 26 23 12 3 18 10 14 16 -3 6 1
18 9 27 9 8 16 22 16 30 0 8 6 14 14 14 8 0 18 9 21 20 3 11 13 20 21 20 17 0
19 20 2 21 -10 0 -10 2 0 6 6 2 12 9 12 14 0 10 47 65 93 108 15 14 27 29 27
34 0 5 17 25 39 46 21 20 41 47 45 59 4 12 14 22 22 22 7 0 19 9 26 20 20 31
54 26 67 -11z m-7101 -9927 c54 -38 149 -110 212 -160 101 -82 203 -150 353
-236 27 -15 92 -62 145 -103 102 -80 139 -105 292 -198 178 -109 286 -183 346
-237 32 -29 84 -74 114 -98 30 -24 78 -65 106 -90 73 -65 196 -148 459 -307
291 -175 786 -504 938 -622 64 -50 189 -138 277 -195 88 -58 210 -142 272
-188 62 -46 182 -124 268 -175 85 -50 185 -110 222 -133 37 -22 97 -49 133
-59 40 -11 81 -31 103 -50 129 -110 189 -152 282 -202 149 -79 209 -116 298
-182 95 -70 417 -233 569 -287 61 -21 142 -53 180 -70 103 -47 186 -77 317
-115 65 -19 121 -36 123 -39 11 -11 -116 -240 -178 -322 -103 -134 -167 -191
-288 -255 -57 -30 -113 -66 -124 -81 -12 -16 -26 -28 -32 -28 -16 0 -266 95
-314 119 -22 12 -75 34 -118 50 -105 38 -263 115 -343 165 -36 23 -82 50 -103
60 -20 11 -65 43 -99 73 -70 59 -192 143 -209 143 -6 0 -23 8 -37 19 -15 10
-83 46 -151 81 -68 34 -203 108 -300 164 -97 57 -234 134 -306 171 -132 70
-163 88 -430 256 -82 52 -181 112 -220 134 -38 21 -111 66 -162 99 -51 34
-129 84 -175 113 -46 28 -137 93 -203 142 -66 50 -167 126 -225 168 -58 43
-131 98 -162 123 -58 47 -162 118 -443 302 -88 58 -256 181 -373 274 -249 197
-301 234 -728 518 -325 217 -503 350 -551 412 l-26 35 66 327 c70 344 116 552
123 552 3 0 49 -31 102 -68z m-568 -502 c0 -5 -5 -10 -11 -10 -5 0 -7 5 -4 10
3 6 8 10 11 10 2 0 4 -4 4 -10z"/>
<path d="M6945 13471 c-191 -67 -225 -86 -335 -187 -182 -170 -276 -370 -287
-616 -4 -74 -1 -141 7 -180 15 -79 76 -270 102 -322 25 -50 177 -207 237 -245
64 -41 178 -71 297 -78 87 -5 110 -3 167 16 36 12 92 39 124 60 63 41 177 156
235 236 126 175 198 402 198 626 0 91 -6 130 -35 246 -45 175 -89 264 -164
336 -68 65 -111 89 -226 122 -125 36 -185 33 -320 -14z m341 -257 c91 -37 147
-128 148 -239 1 -65 -3 -78 -50 -175 -28 -58 -70 -128 -92 -157 -37 -47 -50
-55 -112 -74 -88 -27 -150 -20 -190 19 -16 16 -38 61 -54 110 -23 68 -27 92
-21 135 18 130 51 203 134 290 40 43 73 63 141 89 57 21 51 21 96 2z"/>
<path d="M13115 13259 c-234 -24 -429 -72 -607 -149 -203 -88 -481 -279 -731
-501 -70 -63 -144 -126 -164 -141 -19 -15 -47 -42 -62 -61 -14 -18 -96 -104
-182 -192 -356 -366 -494 -528 -667 -784 -322 -474 -606 -1037 -1047 -2071
-129 -303 -146 -350 -142 -387 6 -56 36 -95 120 -154 87 -61 159 -84 239 -75
157 16 317 124 933 626 357 291 477 385 675 529 355 259 527 360 808 477 465
192 637 248 962 312 347 69 388 74 715 79 363 6 447 -3 678 -77 111 -35 183
-52 258 -59 57 -6 152 -18 211 -27 90 -14 117 -15 169 -5 138 28 219 94 292
240 36 71 47 105 47 140 0 75 -62 298 -163 586 -52 149 -113 332 -136 409 -99
327 -199 508 -372 671 -100 94 -306 267 -399 334 -183 132 -430 213 -810 267
-130 18 -503 26 -625 13z m200 -366 c-46 -63 -117 -134 -164 -164 -62 -40
-126 -40 -207 1 -61 30 -163 113 -153 124 21 22 351 73 483 75 l68 1 -27 -37z
m710 -48 c76 -19 161 -48 205 -70 l74 -37 -37 -19 c-70 -36 -214 -79 -265 -79
-45 0 -55 4 -86 36 -33 34 -96 143 -111 193 -7 23 -6 23 41 16 27 -4 108 -22
179 -40z m-1587 -207 c-22 -122 -98 -325 -144 -385 -30 -39 -55 -42 -138 -13
-62 21 -176 80 -176 91 0 6 104 96 214 185 57 45 238 173 247 174 4 0 2 -24
-3 -52z m1138 -70 c21 -35 62 -89 92 -120 144 -152 281 -180 544 -113 l28 7
-6 -73 c-12 -143 43 -278 159 -385 74 -69 187 -132 276 -155 51 -13 53 -14 46
-44 -18 -85 -24 -143 -19 -172 7 -38 11 -36 -101 -53 -66 -10 -220 -55 -286
-84 -12 -5 -31 14 -76 76 -77 105 -219 242 -303 291 -220 128 -460 107 -665
-60 -90 -74 -193 -203 -301 -379 -11 -18 -15 -17 -70 14 -518 293 -833 210
-983 -260 -17 -53 -34 -116 -37 -138 -5 -32 -10 -40 -23 -36 -9 3 -55 19 -102
36 -90 31 -227 55 -263 46 -21 -5 -21 -3 -21 137 0 78 -4 166 -8 195 l-8 53
38 -7 c64 -13 165 -8 225 9 101 30 185 112 229 224 21 52 23 75 24 216 0 136
2 156 15 151 92 -39 172 -57 260 -58 84 -1 102 2 155 27 138 64 238 207 320
455 15 46 30 81 33 80 98 -52 230 -88 319 -88 135 0 297 81 409 204 33 36 59
65 60 65 1 1 18 -27 40 -61z m1177 -207 c59 -64 87 -104 131 -193 31 -61 56
-116 56 -121 0 -6 -36 -8 -87 -5 -108 5 -181 37 -242 103 -35 39 -41 51 -41
90 0 45 28 142 56 197 19 37 31 31 127 -71z m-3127 -448 c11 -96 9 -195 -6
-222 -11 -21 -17 -23 -62 -17 -49 7 -155 41 -171 56 -8 7 210 248 225 249 3 1
10 -29 14 -66z m3493 -411 c24 -70 46 -134 48 -142 3 -8 -18 9 -47 39 -51 53
-90 117 -90 146 0 22 27 85 37 85 4 0 28 -57 52 -128z m-1379 -44 c82 -41 169
-128 249 -249 l62 -94 -188 -7 c-201 -7 -275 -15 -502 -54 -79 -13 -146 -22
-148 -20 -7 7 45 105 105 196 65 100 169 207 232 238 63 31 114 28 190 -10z
m-2640 -120 c24 -91 29 -115 34 -173 9 -87 -10 -153 -53 -182 -18 -13 -50 -28
-70 -33 -42 -13 -221 -26 -221 -17 0 20 279 447 292 447 4 0 12 -19 18 -42z
m1402 -209 c78 -26 162 -68 265 -132 l81 -51 -142 -47 c-78 -26 -222 -80 -321
-119 -99 -40 -186 -75 -193 -77 -29 -12 26 244 73 338 43 86 70 109 127 109
27 0 76 -9 110 -21z m2342 -20 c64 -33 202 -125 213 -142 4 -7 -24 -8 -85 -4
-66 5 -128 18 -229 51 -76 24 -162 49 -192 56 -64 15 -57 22 56 49 116 29 164
27 237 -10z m-3146 -534 c50 -25 92 -49 92 -54 0 -4 -39 -31 -87 -60 -49 -29
-153 -97 -232 -152 l-144 -100 7 79 c8 96 39 213 73 270 50 87 137 92 291 17z
m-662 -36 l-21 -71 -27 58 c-14 33 -27 62 -27 66 -1 6 30 13 75 17 l21 1 -21
-71z m-371 -123 c19 -38 35 -79 35 -92 0 -34 -60 -96 -130 -133 -59 -32 -200
-84 -207 -77 -2 2 45 101 104 220 l108 218 28 -34 c15 -18 43 -64 62 -102z
m273 -495 c-4 -11 -212 -180 -216 -176 -2 2 9 31 24 65 37 83 82 120 147 120
27 0 47 -4 45 -9z m-636 -418 c88 -34 88 -34 6 -100 -40 -32 -104 -83 -142
-113 l-69 -54 6 74 c7 87 31 172 53 195 20 20 92 19 146 -2z"/>
<path d="M9245 3261 c-40 -10 -78 -31 -88 -47 -4 -8 -14 -14 -22 -14 -7 0 -23
-19 -34 -43 -53 -110 4 -260 119 -313 19 -9 62 -29 96 -45 131 -62 213 -24
304 143 56 103 -13 247 -145 303 -37 16 -189 27 -230 16z"/>
</g>
</svg>
